<svg width="16" height="16" viewBox="0 0 16 16" fill="none" xmlns="http://www.w3.org/2000/svg">
<path fill-rule="evenodd" clip-rule="evenodd" d="M2.66671 8.00001C2.66671 5.05449 5.05452 2.66668 8.00004 2.66668C10.9456 2.66668 13.3334 5.05449 13.3334 8.00001C13.3334 10.9455 10.9456 13.3333 8.00004 13.3333C5.05452 13.3333 2.66671 10.9455 2.66671 8.00001ZM8.00004 1.33334C4.31814 1.33334 1.33337 4.31811 1.33337 8.00001C1.33337 11.6819 4.31814 14.6667 8.00004 14.6667C11.6819 14.6667 14.6667 11.6819 14.6667 8.00001C14.6667 4.31811 11.6819 1.33334 8.00004 1.33334ZM6.86671 6.65955V6.50582C6.86752 6.32291 6.93293 6.12002 7.07887 5.96748C7.21367 5.8266 7.47639 5.66668 7.99621 5.66668C8.48435 5.66668 8.8238 5.89973 8.99691 6.16433C9.18177 6.44689 9.14535 6.68398 9.05761 6.80244C8.94819 6.95016 8.81232 7.08661 8.64812 7.23442C8.59817 7.27939 8.5366 7.33297 8.47058 7.39042L8.47057 7.39043C8.35251 7.49316 8.22024 7.60826 8.11477 7.70862C7.74027 8.06496 7.3335 8.56229 7.3335 9.33334L7.33567 9.67096L8.66897 9.66239L8.66685 9.33152C8.66734 9.1035 8.76081 8.93437 9.03387 8.67455C9.12566 8.58721 9.20817 8.51583 9.30258 8.43415L9.30262 8.43412C9.37244 8.37371 9.44878 8.30767 9.5402 8.22537C9.73032 8.05422 9.94188 7.84871 10.129 7.59606C10.6344 6.91375 10.5162 6.05122 10.1127 5.43435C9.69733 4.79952 8.94166 4.33334 7.99621 4.33334C7.17805 4.33334 6.54375 4.59811 6.11548 5.04572C5.69861 5.48142 5.5349 6.03039 5.53338 6.50245V6.65955H6.86671ZM7.33565 10.3333V11.6693H8.66899V10.3333H7.33565Z" fill="#4E5969"/>
</svg>
